{
    "asset" : {
        "copyright" : "Vorp_al",
        "generator" : "Khronos glTF Blender I/O v1.4.40",
        "version" : "2.0"
    },
    "extensionsUsed" : [
        "KHR_materials_clearcoat"
    ],
    "scene" : 0,
    "scenes" : [
        {
            "name" : "Scene",
            "nodes" : [
                0,
                1
            ]
        }
    ],
    "nodes" : [
        {
            "mesh" : 0,
            "name" : "Sphere"
        },
        {
            "mesh" : 1,
            "name" : "Sphere.001"
        }
    ],
    "materials" : [
        {
            "doubleSided" : true,
            "name" : "Material.001",
            "pbrMetallicRoughness" : {
                "baseColorTexture" : {
                    "index" : 0,
                    "texCoord" : 0
                },
                "metallicFactor" : 0,
                "roughnessFactor" : 0.4645389914512634
            }
        },
        {
            "doubleSided" : true,
            "extensions" : {
                "KHR_materials_clearcoat" : {
                    "clearcoatFactor" : 1,
                    "clearcoatRoughnessFactor" : 0.029999999329447746
                }
            },
            "name" : "Material.002",
            "pbrMetallicRoughness" : {
                "baseColorTexture" : {
                    "index" : 1,
                    "texCoord" : 0
                },
                "metallicFactor" : 0,
                "roughnessFactor" : 0.08510638028383255
            }
        }
    ],
    "meshes" : [
        {
            "name" : "Sphere",
            "primitives" : [
                {
                    "attributes" : {
                        "POSITION" : 0,
                        "NORMAL" : 1,
                        "TEXCOORD_0" : 2
                    },
                    "indices" : 3,
                    "material" : 0
                },
                {
                    "attributes" : {
                        "POSITION" : 4,
                        "NORMAL" : 5,
                        "TEXCOORD_0" : 6
                    },
                    "indices" : 7,
                    "material" : 1
                }
            ]
        },
        {
            "name" : "Sphere.001",
            "primitives" : [
                {
                    "attributes" : {
                        "POSITION" : 8,
                        "NORMAL" : 9,
                        "TEXCOORD_0" : 10
                    },
                    "indices" : 11,
                    "material" : 0
                }
            ]
        }
    ],
    "textures" : [
        {
            "sampler" : 0,
            "source" : 0
        },
        {
            "sampler" : 0,
            "source" : 0
        }
    ],
    "images" : [
        {
            "bufferView" : 4,
            "mimeType" : "image/png",
            "name" : "Material.001_2D_View"
        }
    ],
    "accessors" : [
        {
            "bufferView" : 0,
            "componentType" : 5126,
            "count" : 4859,
            "max" : [
                1.4353301525115967,
                1.5901747941970825,
                1.2089375257492065
            ],
            "min" : [
                -1.4353301525115967,
                -1.1291428804397583,
                -5.629515647888184
            ],
            "type" : "VEC3"
        },
        {
            "bufferView" : 1,
            "componentType" : 5126,
            "count" : 4859,
            "type" : "VEC3"
        },
        {
            "bufferView" : 2,
            "componentType" : 5126,
            "count" : 4859,
            "type" : "VEC2"
        },
        {
            "bufferView" : 3,
            "componentType" : 5123,
            "count" : 20832,
            "type" : "SCALAR"
        },
        {
            "bufferView" : 5,
            "componentType" : 5126,
            "count" : 1451,
            "max" : [
                0.9051629900932312,
                0.6553521156311035,
                0.8933433294296265
            ],
            "min" : [
                -0.9051629900932312,
                0.029889479279518127,
                0.22532974183559418
            ],
            "type" : "VEC3"
        },
        {
            "bufferView" : 6,
            "componentType" : 5126,
            "count" : 1451,
            "type" : "VEC3"
        },
        {
            "bufferView" : 7,
            "componentType" : 5126,
            "count" : 1451,
            "type" : "VEC2"
        },
        {
            "bufferView" : 8,
            "componentType" : 5123,
            "count" : 5760,
            "type" : "SCALAR"
        },
        {
            "bufferView" : 9,
            "componentType" : 5126,
            "count" : 6310,
            "max" : [
                1.4353301525115967,
                1.5901747941970825,
                1.2089375257492065
            ],
            "min" : [
                -1.4353301525115967,
                -1.1291428804397583,
                -5.629515647888184
            ],
            "type" : "VEC3"
        },
        {
            "bufferView" : 10,
            "componentType" : 5126,
            "count" : 6310,
            "type" : "VEC3"
        },
        {
            "bufferView" : 11,
            "componentType" : 5126,
            "count" : 6310,
            "type" : "VEC2"
        },
        {
            "bufferView" : 12,
            "componentType" : 5123,
            "count" : 26592,
            "type" : "SCALAR"
        }
    ],
    "bufferViews" : [
        {
            "buffer" : 0,
            "byteLength" : 58308,
            "byteOffset" : 0
        },
        {
            "buffer" : 0,
            "byteLength" : 58308,
            "byteOffset" : 58308
        },
        {
            "buffer" : 0,
            "byteLength" : 38872,
            "byteOffset" : 116616
        },
        {
            "buffer" : 0,
            "byteLength" : 41664,
            "byteOffset" : 155488
        },
        {
            "buffer" : 0,
            "byteLength" : 681999,
            "byteOffset" : 197152
        },
        {
            "buffer" : 0,
            "byteLength" : 17412,
            "byteOffset" : 879152
        },
        {
            "buffer" : 0,
            "byteLength" : 17412,
            "byteOffset" : 896564
        },
        {
            "buffer" : 0,
            "byteLength" : 11608,
            "byteOffset" : 913976
        },
        {
            "buffer" : 0,
            "byteLength" : 11520,
            "byteOffset" : 925584
        },
        {
            "buffer" : 0,
            "byteLength" : 75720,
            "byteOffset" : 937104
        },
        {
            "buffer" : 0,
            "byteLength" : 75720,
            "byteOffset" : 1012824
        },
        {
            "buffer" : 0,
            "byteLength" : 50480,
            "byteOffset" : 1088544
        },
        {
            "buffer" : 0,
            "byteLength" : 53184,
            "byteOffset" : 1139024
        }
    ],
    "samplers" : [
        {
            "magFilter" : 9729,
            "minFilter" : 9986
        }
    ],
    "buffers" : [
        {
            "byteLength" : 1192208,
            "uri" : "data:application/octet-stream;base64,"
        }
    ]
}
